Coordinates
version=1
nRows=17
nColumns=36
inDegrees=yes

Units are S.I. units (second, meters, Newtons, ...)
If the header above contains a line with 'inDegrees', this indicates whether rotational values are in degrees (yes) or radians (no).

endheader
time	pelvis_tilt	pelvis_list	pelvis_rotation	pelvis_tx	pelvis_ty	pelvis_tz	hip_flexion_r	hip_adduction_r	hip_rotation_r	knee_angle_r	knee_angle_r_beta	ankle_angle_r	subtalar_angle_r	mtp_angle_r	hip_flexion_l	hip_adduction_l	hip_rotation_l	knee_angle_l	knee_angle_l_beta	ankle_angle_l	subtalar_angle_l	mtp_angle_l	lumbar_extension	lumbar_bending	lumbar_rotation	arm_flex_r	arm_add_r	arm_rot_r	elbow_flex_r	pro_sup_r	arm_flex_l	arm_add_l	arm_rot_l	elbow_flex_l	pro_sup_l
      1.35000000	    -14.90609143	     -6.61028762	     13.02170394	     -0.35561666	      1.13654586	      0.07593274	     35.67634655	      2.54766698	      1.60013502	     39.26186176	      0.68524876	     21.98569550	    -20.18089704	     -7.49999987	     37.18054366	     -1.02593820	      0.18419812	     41.92700694	      0.73176432	     26.57836405	    -17.32422937	     -7.49999987	    -10.50987445	      0.03667498	     -1.66062205	      9.13419858	    -12.31625331	     15.02158407	     45.55013923	     83.26875210	      2.87538775	    -17.60407011	     16.92773749	     66.48402950	     90.59153394
      1.36666670	    -15.34972711	     -6.89719470	     12.95357622	     -0.35541156	      1.12398795	      0.07656539	     36.37204395	      3.00725073	      1.86757984	     40.91568989	      0.71411350	     23.00579793	    -20.54780907	     -7.49999987	     37.68385636	     -1.28821615	      0.09533082	     43.51140146	      0.75941722	     27.55268320	    -17.54002287	     -7.49999987	    -11.19946101	     -0.03309702	     -1.46859012	     10.93140706	    -12.45470465	     15.00819241	     45.72501190	     83.11613468	      4.48791965	    -17.97779713	     17.00342933	     66.78157365	     90.40786205
      1.38333330	    -16.19369685	     -7.22005048	     12.56143847	     -0.35466028	      1.11655080	      0.07687693	     37.96732227	      3.52664206	      2.10668617	     43.10477402	      0.75232023	     24.54253590	    -20.41291899	     -7.49999987	     39.17144982	     -1.67461615	     -0.21969301	     45.58438222	      0.79559756	     29.21102926	    -16.86214597	     -7.49999987	    -11.16882462	     -0.33855231	     -0.59746641	     14.03493453	    -12.99978061	     18.00813247	     43.67917932	     82.11674235	      7.47503663	    -18.90867496	     19.69340608	     67.00928367	     89.23073314
      1.40000000	    -16.59265988	     -7.29895543	     12.03203726	     -0.33936583	      1.11788229	      0.07510947	     38.85504517	      4.11421563	      2.75370074	     45.38741744	      0.79215987	     25.84850195	    -20.60137839	     -7.49999987	     39.66006419	     -1.82821002	     -0.20142834	     47.06044247	      0.82135967	     30.55941350	    -16.47222990	     -7.49999987	    -11.73535261	     -0.55158413	      0.34576878	     16.41107171	    -12.81062593	     18.16630013	     42.98619121	     82.32170333	      9.29691355	    -19.01000018	     19.18395597	     68.49711882	     89.46729867
      1.41666670	    -16.88187902	     -7.32974956	     11.09727299	     -0.33900294	      1.11328544	      0.07554949	     40.01430225	      4.86081487	      3.46075611	     47.79493257	      0.83417894	     27.18250387	    -20.91793344	     -7.49999987	     40.67614899	     -1.93874368	      0.08266768	     49.52571570	      0.86438680	     31.87229317	    -17.20555615	     -7.49999987	    -12.63562156	     -0.70149462	      1.34839197	     20.00053245	    -12.81186474	     17.83969187	     44.03463438	     81.16447729	     11.77875194	    -19.43311082	     19.13271157	     70.57871545	     88.40189157
      1.43333330	    -16.97219365	     -7.39818152	      9.99990669	     -0.33780192	      1.10616289	      0.07647898	     41.08436404	      5.89999333	      4.33219784	     50.03860077	      0.87333834	     28.77864123	    -21.13548164	     -7.49999987	     41.54004550	     -2.23111543	      0.49477914	     52.15424601	      0.91026331	     32.93093083	    -18.35733469	     -7.49999987	    -13.42819373	     -0.65587202	      2.05939141	     24.31296067	    -12.81580757	     17.66073103	     45.04232527	     82.12137906	     15.56839526	    -20.88432609	     19.19280203	     72.91771367	     88.99889939
      1.45000000	    -17.80916480	     -7.37080423	      8.93877504	     -0.33579215	      1.10174700	      0.07653754	     42.55844565	      6.68045392	      5.17942856	     51.25577971	      0.89458212	     29.53713534	    -21.62222741	     -7.49999987	     43.26402077	     -2.02557163	      1.02209079	     54.10325403	      0.94427992	     34.04852894	    -19.05903042	     -7.49999987	    -13.92216196	     -0.85259741	      2.78470975	     27.12167540	    -13.28129958	     15.58832170	     48.92359400	     82.99058800	     17.92151037	    -22.44332842	     17.78740945	     77.43498282	     89.31190898
      1.46666670	    -18.33900017	     -7.35767722	      8.43482222	     -0.32128813	      1.09926610	      0.07564479	     43.16820628	      7.36230106	      6.06111069	     51.84443185	      0.90485603	     30.43675303	    -21.99169961	     -7.49999987	     43.86181595	     -1.85797236	      1.86392608	     55.18704229	      0.96319559	     35.08615620	    -19.57556454	     -7.49999987	    -14.13424055	     -0.84280342	      3.88665337	     28.80170539	    -13.69416194	      9.23199059	     55.75188711	     88.09089843	     19.93357585	    -24.07272979	     15.64822833	     82.54173185	     90.60789681
      1.48333330	    -18.60377980	     -7.33820418	      8.20645025	     -0.31895363	      1.10772750	      0.07414768	     42.97806782	      7.79620340	      6.83493980	     51.47658229	      0.89843585	     29.97823794	    -23.31876367	     -7.49999987	     43.83271429	     -1.70800315	      2.32237321	     55.07829329	      0.96129756	     35.00439430	    -20.07869074	     -7.49999987	    -14.49754591	     -0.64018027	      4.47777589	     31.98173344	    -14.83859922	      5.45121625	     62.75432090	     88.72975362	     22.25849296	    -26.86759294	     13.87220172	     89.85564582	     90.61739122
      1.50000000	    -19.09223061	     -7.33351023	      8.66149436	     -0.31229996	      1.09733083	      0.07030581	     43.25846601	      7.73711747	      7.21581366	     51.77275992	      0.90360512	     30.00518456	    -24.40541977	     -7.49999987	     44.22246631	     -0.89714668	      3.32705402	     54.65462722	      0.95390320	     36.50624192	    -18.15798100	     -7.49999987	    -13.50920669	     -0.34519583	      4.07305958	     34.87237465	    -17.01404576	      3.48590610	     70.77027824	     88.54990580	     25.34629423	    -31.54272604	     13.05880515	     98.98332002	     90.52644405
      1.51666670	    -19.17900245	     -7.37186516	      9.67917481	     -0.29119309	      1.10169599	      0.06268371	     42.33165531	      7.41414785	      7.39440203	     51.68027299	      0.90199092	     29.97469083	    -25.69817761	     -7.49999987	     43.44687902	      0.44823820	      4.65190165	     52.65864355	      0.91906671	     38.88918158	    -13.40056863	     -7.49999987	    -12.92126024	      0.10665111	      3.61314800	     34.05794087	    -19.03554386	     -0.96515327	     84.29581645	     88.59754489	     24.51125068	    -34.16308767	      7.80066928	    109.22238761	     90.31383006
      1.53333330	    -18.84892321	     -7.32612162	     10.41058198	     -0.27130257	      1.10102769	      0.04980232	     40.30979763	      6.94807119	      7.56588069	     51.26307869	      0.89470951	     30.24513944	    -26.37563724	     -7.49999987	     40.93189145	      1.36382902	      5.53748301	     50.48005212	      0.88104312	     40.46880479	    -11.00205479	     -7.49999987	    -11.24187054	      0.46849958	      2.59247580	     32.74901125	    -21.41378017	     -1.63631842	     95.27574187	     88.84586895	     23.86359143	    -38.90958736	      5.15914962	    118.91672940	     90.09684176
      1.55000000	    -18.62808892	     -7.44998582	     10.84040535	     -0.25752208	      1.10236626	      0.04769349	     38.10142554	      6.81658238	      7.76428908	     50.37837834	      0.87926857	     30.08310290	    -27.04836037	     -7.49999987	     38.22594153	      1.38928536	      6.02630604	     49.43483141	      0.86280057	     40.24950805	    -12.07272284	     -7.49999987	     -9.56073109	      2.02626937	     -6.28639149	     40.64146779	    -17.14864027	      6.62933579	     95.95455491	     91.91603913	      5.47058900	    -46.41143494	    -17.49336878	    131.66716025	     87.54559588
      1.56666670	    -17.93940933	     -7.57130968	     10.83930727	     -0.24916100	      1.11552631	      0.04206229	     34.99513812	      6.81686774	      8.18088640	     48.29072450	      0.84283214	     29.22279117	    -27.33508015	     -7.49999987	     35.28978031	      1.09966982	      6.32204162	     47.98921630	      0.83756983	     38.69627550	    -13.98454041	     -7.49999987	     -8.80671606	      3.22339725	    -13.60038707	     47.83181021	    -12.87332532	     13.38456039	     93.95873545	     92.00486032	    -14.41885996	    -48.87903254	    -41.97529652	    139.05636319	     84.53501938
      1.58333330	    -17.00922763	     -7.51277338	     11.26003466	     -0.21629519	      1.12428399	      0.03423568	     30.65179539	      6.43599973	      8.32305024	     45.04912203	      0.78625550	     28.16599758	    -26.71090800	     -7.49999987	     30.89638833	      0.78763376	      6.64727452	     45.27287124	      0.79016067	     36.77649927	    -14.74161468	     -7.49999987	     -7.86404566	      3.71472228	    -18.72861019	     51.54454101	    -11.25564619	     17.68574374	     94.64813384	     92.81225993	    -33.57235863	    -44.60730180	    -62.92550231	    145.95986424	     83.41309135
      1.60000000	    -15.32392435	     -7.19499164	     10.97760676	     -0.17174889	      1.14074067	      0.02563248	     24.57816544	      5.86512798	      8.34577402	     40.84737011	      0.71292110	     26.32466812	    -24.38446064	     -7.49999987	     24.29618184	      0.53977517	      6.52041704	     40.24444950	      0.70239815	     34.77340138	    -12.04698090	     -7.49999987	     -6.55731546	      3.43174281	    -17.52826856	     50.05428696	    -15.21390540	     17.69821208	     97.49139243	     92.09747285	    -42.87248587	    -40.75591254	    -67.65350839	    148.62130506	     83.18912490
      1.61666670	    -14.26765907	     -7.23681507	     10.92799540	     -0.16608594	      1.15446591	      0.02822818	     21.03909410	      5.52656363	      8.12167872	     38.43914154	      0.67088958	     24.94754174	    -22.09262529	     -7.49999987	     19.38328128	     -0.34805593	      5.71482332	     36.60876938	      0.63894356	     31.31227093	    -11.94946984	     -7.49999987	     -5.34046560	      3.52852507	    -16.33405841	     48.50787480	    -17.08026310	     17.07942006	    100.40250864	     88.73379500	    -47.13707197	    -46.39181689	    -71.79599453	    148.34479844	     80.94996552
